<?xml version="1.0" standalone="no"?>
<!DOCTYPE svg PUBLIC "-//W3C//DTD SVG 20010904//EN"
 "http://www.w3.org/TR/2001/REC-SVG-20010904/DTD/svg10.dtd">
<svg version="1.0" xmlns="http://www.w3.org/2000/svg"
 width="565.000000pt" height="526.000000pt" viewBox="0 0 565.000000 526.000000"
 preserveAspectRatio="xMidYMid meet">
<metadata>
Created by potrace 1.16, written by Peter Selinger 2001-2019
</metadata>
<g transform="translate(0.000000,526.000000) scale(0.100000,-0.100000)"
fill="#000000" stroke="none">
<path d="M2536 4815 c-12 -13 -29 -43 -36 -67 -7 -24 -19 -53 -27 -65 -7 -13
-34 -73 -59 -135 -25 -62 -52 -120 -60 -127 -12 -13 -32 3 -149 120 -95 94
-142 134 -158 133 -21 0 -216 -141 -307 -222 l-45 -40 22 -43 c12 -24 31 -80
43 -124 12 -44 32 -96 43 -116 38 -66 0 -92 -59 -40 -18 16 -63 46 -101 67
-37 20 -89 52 -116 71 -59 41 -85 42 -136 1 -237 -192 -291 -240 -291 -257 0
-12 164 -268 201 -316 27 -32 118 -175 157 -244 13 -24 62 -100 108 -168 46
-68 86 -134 90 -148 3 -13 -13 -104 -39 -212 -25 -103 -55 -233 -67 -288 -12
-55 -30 -129 -41 -165 -10 -36 -32 -130 -49 -210 -17 -80 -39 -174 -49 -210
-22 -74 -41 -163 -41 -190 0 -10 12 -22 28 -28 52 -20 467 -184 497 -197 181
-78 277 -116 500 -201 50 -19 96 -40 102 -47 16 -16 29 -312 14 -322 -6 -3
-26 9 -44 27 -85 85 -209 164 -327 207 -165 60 -449 68 -644 17 -139 -36 -148
-47 -97 -119 16 -23 41 -61 55 -84 33 -54 80 -107 187 -213 113 -111 138 -130
245 -184 147 -74 221 -91 409 -89 131 0 174 4 240 22 63 17 120 23 266 28 169
5 191 4 250 -15 127 -40 166 -45 318 -39 99 5 165 13 206 25 73 23 183 74 250
117 146 93 313 276 411 453 33 59 27 72 -33 72 -17 0 -67 7 -110 15 -132 26
-228 29 -359 12 -219 -29 -418 -118 -559 -249 -84 -79 -110 -92 -119 -60 -2 9
-7 94 -11 188 -5 136 -4 172 7 180 15 11 65 31 373 146 44 16 112 45 152 64
39 19 78 34 85 34 8 0 18 4 24 9 5 5 82 37 171 70 155 58 280 107 351 138 28
12 33 19 28 36 -4 12 -24 97 -46 188 -22 92 -44 177 -49 190 -6 13 -27 94 -46
179 -20 85 -45 182 -55 215 -16 50 -54 198 -123 473 l-11 44 45 42 c24 23 116
118 204 211 88 93 171 180 185 194 56 58 160 179 160 187 0 7 -197 415 -229
474 -14 26 -39 23 -104 -13 -34 -19 -107 -58 -161 -87 -55 -29 -119 -65 -144
-81 -46 -29 -72 -29 -72 2 0 10 10 80 22 156 12 76 22 163 22 193 l1 54 -105
62 c-58 35 -124 74 -146 88 -23 14 -47 26 -53 26 -12 0 -144 -117 -248 -219
-35 -33 -67 -61 -73 -61 -18 0 -45 39 -69 102 -14 35 -53 122 -88 195 -35 72
-63 136 -63 142 0 5 -12 19 -26 30 -25 20 -40 21 -216 21 -188 0 -189 0 -212
-25z m333 -146 c11 -12 36 -60 57 -108 20 -47 60 -136 89 -197 70 -148 70
-148 45 -189 -36 -59 -53 -62 -281 -66 l-206 -4 -37 44 c-46 55 -66 93 -66
124 0 25 42 135 65 171 7 11 28 57 45 101 17 44 39 95 47 113 l15 32 104 0
c92 0 105 -2 123 -21z m-758 -251 c139 -140 195 -205 263 -309 38 -57 84 -121
103 -142 43 -49 45 -99 5 -171 -16 -28 -41 -88 -56 -133 -19 -55 -33 -83 -43
-83 -12 0 -353 331 -353 342 0 2 -34 102 -75 223 l-75 220 34 30 c60 53 111
94 118 94 4 1 39 -32 79 -71z m1504 -11 c58 -31 60 -33 59 -72 0 -22 -8 -94
-17 -160 -38 -270 -43 -285 -125 -351 -26 -21 -93 -85 -148 -141 -68 -69 -107
-101 -117 -98 -8 4 -29 41 -46 83 -17 42 -36 84 -41 92 -16 24 -56 113 -69
153 -11 34 -10 42 16 92 15 31 39 68 54 83 14 15 28 32 30 39 6 19 318 313
332 313 6 0 39 -15 72 -33z m-2104 -355 c13 -10 49 -31 79 -46 30 -16 62 -34
70 -40 8 -7 71 -45 140 -86 100 -59 144 -93 220 -170 52 -52 113 -111 135
-131 22 -20 78 -77 125 -128 77 -84 89 -103 131 -204 25 -62 58 -134 72 -162
32 -64 187 -415 187 -425 0 -4 6 -13 14 -19 8 -7 26 -41 40 -76 l25 -63 -9
-334 c-21 -715 -21 -719 -37 -725 -14 -6 -39 3 -170 64 -40 18 -85 35 -100 39
-15 3 -53 17 -83 30 -30 13 -131 53 -225 90 -93 36 -221 88 -284 116 -63 28
-153 65 -200 82 -99 37 -102 42 -77 140 25 99 63 262 91 391 15 66 37 161 50
210 13 50 38 153 55 230 17 77 36 149 42 159 6 11 13 47 15 80 5 58 3 64 -35
121 -304 461 -354 539 -393 610 -12 22 -24 42 -28 45 -19 15 -51 72 -51 90 0
11 14 32 31 47 18 16 37 33 43 38 51 47 90 55 127 27z m2693 -18 c9 -8 16 -22
16 -29 0 -8 15 -45 34 -82 39 -76 68 -144 64 -150 -15 -19 -195 -210 -277
-293 -58 -58 -131 -134 -162 -170 -31 -36 -76 -85 -99 -109 -30 -32 -40 -50
-36 -65 47 -190 104 -407 131 -506 19 -69 45 -170 59 -225 13 -55 45 -180 70
-279 53 -206 55 -223 24 -235 -43 -16 -183 -73 -328 -133 -80 -33 -174 -70
-210 -83 -36 -12 -81 -30 -100 -38 -19 -9 -123 -51 -230 -93 -107 -42 -204
-83 -215 -90 -11 -8 -33 -14 -49 -14 l-29 0 6 127 c4 71 12 306 17 523 12 420
11 415 68 540 51 112 85 187 127 275 23 50 76 167 116 260 40 94 84 189 97
212 12 23 117 132 232 243 l209 201 173 88 c96 49 192 100 213 114 47 31 58
32 79 11z m-1284 -84 c11 -6 29 -43 46 -92 15 -46 33 -92 40 -103 7 -11 28
-57 48 -101 19 -45 46 -99 60 -121 45 -68 44 -84 -24 -238 -33 -77 -74 -167
-90 -200 -17 -33 -30 -63 -30 -67 0 -3 -23 -54 -50 -113 -28 -58 -53 -120 -57
-135 -6 -34 -27 -55 -47 -47 -8 3 -23 32 -35 64 -11 32 -32 78 -45 103 -13 25
-36 76 -50 115 -15 38 -33 76 -41 85 -7 8 -29 53 -48 100 -19 47 -49 112 -66
145 -17 33 -31 68 -31 77 0 19 7 36 105 273 36 88 73 181 81 207 8 27 22 48
32 51 34 9 184 7 202 -3z m-182 -2697 c27 -16 34 -16 86 -1 45 12 58 13 66 2
17 -20 25 -438 8 -451 -8 -7 -55 -10 -113 -9 l-100 1 -8 224 c-4 124 -6 230
-3 238 7 18 28 16 64 -4z m-764 -109 c135 -26 258 -84 350 -165 47 -42 166
-184 166 -199 0 -17 -29 -29 -90 -39 -187 -31 -370 13 -535 127 -85 59 -241
211 -256 249 -10 28 -2 30 121 42 96 9 132 6 244 -15z m2024 -36 c2 -10 -37
-56 -100 -120 -121 -120 -226 -188 -351 -227 -73 -22 -99 -25 -229 -24 -197 1
-216 15 -130 101 116 113 225 188 336 228 148 54 194 62 341 61 112 -2 130 -4
133 -19z"/>
</g>
</svg>
